<svg width="98" height="20" viewBox="0 0 98 20" fill="none" xmlns="http://www.w3.org/2000/svg">
<path d="M27.1361 6.33624C27.6161 6.33624 28.0241 6.40424 28.3601 6.54024C28.6961 6.67624 29.0241 6.86824 29.3441 7.11624C29.4321 7.18824 29.5081 7.22424 29.5721 7.22424C29.7321 7.22424 29.8361 6.98424 29.8841 6.50424H30.1601C30.1281 7.02424 30.1121 7.94424 30.1121 9.26424H29.8361C29.7481 8.74424 29.6681 8.37224 29.5961 8.14824C29.5241 7.91624 29.4041 7.69624 29.2361 7.48824C28.9961 7.17624 28.6881 6.94424 28.3121 6.79224C27.9441 6.63224 27.5441 6.55224 27.1121 6.55224C26.5921 6.55224 26.1361 6.72424 25.7441 7.06824C25.3601 7.41224 25.0601 7.90424 24.8441 8.54424C24.6281 9.17624 24.5201 9.92024 24.5201 10.7762C24.5201 11.6482 24.6361 12.3962 24.8681 13.0202C25.1001 13.6442 25.4201 14.1202 25.8281 14.4482C26.2441 14.7682 26.7121 14.9282 27.2321 14.9282C27.6321 14.9282 28.0201 14.8522 28.3961 14.7002C28.7721 14.5482 29.0681 14.3202 29.2841 14.0162C29.4441 13.7922 29.5601 13.5522 29.6321 13.2962C29.7041 13.0402 29.7721 12.6482 29.8361 12.1202H30.1121C30.1121 13.4962 30.1281 14.4562 30.1601 15.0002H29.8841C29.8601 14.7442 29.8241 14.5642 29.7761 14.4602C29.7361 14.3482 29.6761 14.2922 29.5961 14.2922C29.5321 14.2922 29.4481 14.3242 29.3441 14.3882C28.9841 14.6442 28.6401 14.8402 28.3121 14.9762C27.9841 15.1042 27.5881 15.1682 27.1241 15.1682C26.3641 15.1682 25.6961 14.9962 25.1201 14.6522C24.5521 14.3082 24.1081 13.8122 23.7881 13.1642C23.4761 12.5082 23.3201 11.7282 23.3201 10.8242C23.3201 9.94424 23.4801 9.16424 23.8001 8.48424C24.1281 7.80424 24.5801 7.27624 25.1561 6.90024C25.7401 6.52424 26.4001 6.33624 27.1361 6.33624ZM37.0778 6.33624C37.8378 6.33624 38.5018 6.50824 39.0698 6.85224C39.6458 7.19624 40.0898 7.69624 40.4018 8.35224C40.7218 9.00024 40.8818 9.77624 40.8818 10.6802C40.8818 11.5602 40.7178 12.3402 40.3898 13.0202C40.0698 13.7002 39.6178 14.2282 39.0338 14.6042C38.4578 14.9802 37.8018 15.1682 37.0658 15.1682C36.3058 15.1682 35.6378 14.9962 35.0618 14.6522C34.4938 14.3082 34.0498 13.8122 33.7298 13.1642C33.4178 12.5082 33.2618 11.7282 33.2618 10.8242C33.2618 9.94424 33.4218 9.16424 33.7418 8.48424C34.0698 7.80424 34.5218 7.27624 35.0978 6.90024C35.6818 6.52424 36.3418 6.33624 37.0778 6.33624ZM37.0298 6.55224C36.5178 6.55224 36.0658 6.73224 35.6738 7.09224C35.2898 7.44424 34.9898 7.94024 34.7738 8.58024C34.5658 9.22024 34.4618 9.95224 34.4618 10.7762C34.4618 11.6082 34.5778 12.3402 34.8098 12.9722C35.0498 13.6042 35.3698 14.0922 35.7698 14.4362C36.1698 14.7802 36.6178 14.9522 37.1138 14.9522C37.6258 14.9522 38.0738 14.7762 38.4578 14.4242C38.8498 14.0642 39.1498 13.5642 39.3578 12.9242C39.5738 12.2842 39.6818 11.5522 39.6818 10.7282C39.6818 9.89624 39.5618 9.16424 39.3218 8.53224C39.0898 7.90024 38.7738 7.41224 38.3738 7.06824C37.9738 6.72424 37.5258 6.55224 37.0298 6.55224ZM51.1466 6.74424C50.8666 6.76024 50.6586 6.80424 50.5226 6.87624C50.3866 6.94024 50.2946 7.05224 50.2466 7.21224C50.1986 7.36424 50.1746 7.59224 50.1746 7.89624V15.0602H49.8986L44.8586 7.27224V13.6082C44.8586 13.9202 44.8826 14.1522 44.9306 14.3042C44.9866 14.4562 45.0906 14.5682 45.2426 14.6402C45.3946 14.7042 45.6306 14.7442 45.9506 14.7602V15.0002C45.6626 14.9762 45.2546 14.9642 44.7266 14.9642C44.2466 14.9642 43.8746 14.9762 43.6106 15.0002V14.7602C43.8906 14.7442 44.0986 14.7042 44.2346 14.6402C44.3706 14.5682 44.4626 14.4562 44.5106 14.3042C44.5586 14.1442 44.5826 13.9122 44.5826 13.6082V7.77624C44.5826 7.47224 44.5586 7.25224 44.5106 7.11624C44.4626 6.98024 44.3706 6.88824 44.2346 6.84024C44.1066 6.79224 43.8986 6.76024 43.6106 6.74424V6.50424C43.8746 6.52824 44.2466 6.54024 44.7266 6.54024C45.0866 6.54024 45.3986 6.52824 45.6626 6.50424L49.8986 13.0322V7.89624C49.8986 7.58424 49.8706 7.35224 49.8146 7.20024C49.7666 7.04824 49.6666 6.94024 49.5146 6.87624C49.3626 6.80424 49.1266 6.76024 48.8066 6.74424V6.50424C49.0946 6.52824 49.5026 6.54024 50.0306 6.54024C50.5106 6.54024 50.8826 6.52824 51.1466 6.50424V6.74424ZM62.3332 15.3482C62.1572 15.9562 61.9052 16.4122 61.5772 16.7162C61.1852 17.0762 60.6452 17.2562 59.9572 17.2562C59.5892 17.2562 59.2292 17.2002 58.8772 17.0882C58.5252 16.9762 58.0812 16.8002 57.5452 16.5602C56.9532 16.3042 56.4692 16.1122 56.0932 15.9842L55.8052 15.9002C55.4612 16.0202 55.1292 16.0802 54.8092 16.0802C54.4412 16.0802 54.2572 16.0002 54.2572 15.8402C54.2572 15.6722 54.4732 15.5882 54.9052 15.5882C55.1852 15.5882 55.4852 15.6202 55.8052 15.6842C56.0612 15.6122 56.3572 15.5002 56.6932 15.3482C56.9012 15.2522 57.0572 15.1842 57.1612 15.1442C56.4812 15.0802 55.8892 14.8682 55.3852 14.5082C54.8892 14.1482 54.5012 13.6562 54.2212 13.0322C53.9492 12.4002 53.8132 11.6642 53.8132 10.8242C53.8132 9.94424 53.9732 9.16424 54.2932 8.48424C54.6212 7.80424 55.0732 7.27624 55.6492 6.90024C56.2332 6.52424 56.8932 6.33624 57.6292 6.33624C58.3892 6.33624 59.0532 6.50824 59.6212 6.85224C60.1972 7.19624 60.6412 7.69624 60.9532 8.35224C61.2732 9.00024 61.4332 9.77624 61.4332 10.6802C61.4332 11.5122 61.2892 12.2562 61.0012 12.9122C60.7132 13.5602 60.3092 14.0802 59.7892 14.4722C59.2692 14.8562 58.6732 15.0802 58.0012 15.1442V15.1562C57.8092 15.1802 57.6412 15.2122 57.4972 15.2522C57.3612 15.3002 57.1772 15.3722 56.9452 15.4682C56.6572 15.5962 56.4172 15.6882 56.2252 15.7442C57.1132 15.9202 57.8652 16.0602 58.4812 16.1642C59.1052 16.2682 59.6212 16.3202 60.0292 16.3202C60.5972 16.3202 61.0452 16.2362 61.3732 16.0682C61.7092 15.9082 61.9692 15.6442 62.1532 15.2762L62.3332 15.3482ZM55.0132 10.7762C55.0132 11.6082 55.1292 12.3402 55.3612 12.9722C55.6012 13.6042 55.9212 14.0922 56.3212 14.4362C56.7212 14.7802 57.1692 14.9522 57.6652 14.9522C58.1772 14.9522 58.6252 14.7762 59.0092 14.4242C59.4012 14.0642 59.7012 13.5642 59.9092 12.9242C60.1252 12.2842 60.2332 11.5522 60.2332 10.7282C60.2332 9.89624 60.1132 9.16424 59.8732 8.53224C59.6412 7.90024 59.3252 7.41224 58.9252 7.06824C58.5252 6.72424 58.0772 6.55224 57.5812 6.55224C57.0692 6.55224 56.6172 6.73224 56.2252 7.09224C55.8412 7.44424 55.5412 7.94024 55.3252 8.58024C55.1172 9.22024 55.0132 9.95224 55.0132 10.7762ZM71.5414 6.74424C71.2614 6.76024 71.0534 6.80424 70.9174 6.87624C70.7814 6.94024 70.6894 7.05224 70.6414 7.21224C70.5934 7.36424 70.5694 7.59224 70.5694 7.89624V11.5082C70.5694 12.0842 70.5294 12.5802 70.4494 12.9962C70.3774 13.4042 70.2534 13.7562 70.0774 14.0522C69.8774 14.3962 69.5814 14.6682 69.1894 14.8682C68.8054 15.0682 68.3694 15.1682 67.8814 15.1682C67.0014 15.1682 66.3294 14.9522 65.8654 14.5202C65.5134 14.1922 65.2774 13.8202 65.1574 13.4042C65.0374 12.9882 64.9774 12.3682 64.9774 11.5442V7.77624C64.9774 7.47224 64.9534 7.25224 64.9054 7.11624C64.8574 6.98024 64.7654 6.88824 64.6294 6.84024C64.5014 6.79224 64.2934 6.76024 64.0054 6.74424V6.50424C64.3414 6.52824 64.8534 6.54024 65.5414 6.54024C66.1894 6.54024 66.6974 6.52824 67.0654 6.50424V6.74424C66.7774 6.76024 66.5654 6.79224 66.4294 6.84024C66.3014 6.88824 66.2134 6.98024 66.1654 7.11624C66.1174 7.25224 66.0934 7.47224 66.0934 7.77624V11.7482C66.0934 12.3882 66.1374 12.9202 66.2254 13.3442C66.3134 13.7682 66.4934 14.1082 66.7654 14.3642C67.0454 14.6202 67.4534 14.7482 67.9894 14.7482C68.8374 14.7482 69.4334 14.4762 69.7774 13.9322C70.1214 13.3882 70.2934 12.6242 70.2934 11.6402V7.89624C70.2934 7.46424 70.2134 7.16824 70.0534 7.00824C69.9014 6.84824 69.6174 6.76024 69.2014 6.74424V6.50424C69.4894 6.52824 69.8974 6.54024 70.4254 6.54024C70.9054 6.54024 71.2774 6.52824 71.5414 6.50424V6.74424ZM80.1891 13.4642C80.1891 13.9202 80.2171 14.4322 80.2731 15.0002C79.7291 14.9762 78.8131 14.9642 77.5251 14.9642C75.9891 14.9642 74.8291 14.9762 74.0451 15.0002V14.7602C74.3331 14.7442 74.5411 14.7122 74.6691 14.6642C74.8051 14.6162 74.8971 14.5242 74.9451 14.3882C74.9931 14.2522 75.0171 14.0322 75.0171 13.7282V7.77624C75.0171 7.47224 74.9931 7.25224 74.9451 7.11624C74.8971 6.98024 74.8051 6.88824 74.6691 6.84024C74.5411 6.79224 74.3331 6.76024 74.0451 6.74424V6.50424C74.8291 6.52824 75.9891 6.54024 77.5251 6.54024C78.7011 6.54024 79.5371 6.52824 80.0331 6.50424C79.9771 7.03224 79.9491 7.50424 79.9491 7.92024C79.9491 8.23224 79.9611 8.48024 79.9851 8.66424H79.7091C79.6531 8.14424 79.5811 7.76024 79.4931 7.51224C79.4051 7.25624 79.2571 7.07224 79.0491 6.96024C78.8411 6.84024 78.5251 6.78024 78.1011 6.78024H77.1051C76.8171 6.78024 76.6051 6.80424 76.4691 6.85224C76.3411 6.89224 76.2531 6.98024 76.2051 7.11624C76.1571 7.25224 76.1331 7.47224 76.1331 7.77624V10.6082H76.9251C77.2051 10.6082 77.4211 10.5442 77.5731 10.4162C77.7251 10.2802 77.8251 10.1242 77.8731 9.94824C77.9291 9.76424 77.9731 9.53624 78.0051 9.26424L78.0411 9.02424H78.3171C78.2931 9.36024 78.2811 9.73624 78.2811 10.1522V10.7282C78.2811 11.1362 78.3051 11.7042 78.3531 12.4322H78.0771C78.0691 12.3762 78.0451 12.1842 78.0051 11.8562C77.9651 11.5202 77.8531 11.2682 77.6691 11.1002C77.4931 10.9322 77.2451 10.8482 76.9251 10.8482H76.1331V13.7282C76.1331 14.0322 76.1571 14.2522 76.2051 14.3882C76.2531 14.5242 76.3411 14.6162 76.4691 14.6642C76.6051 14.7042 76.8171 14.7242 77.1051 14.7242H77.9811C78.4771 14.7242 78.8531 14.6602 79.1091 14.5322C79.3731 14.3962 79.5651 14.1842 79.6851 13.8962C79.8051 13.6002 79.8931 13.1682 79.9491 12.6002H80.2251C80.2011 12.8162 80.1891 13.1042 80.1891 13.4642ZM85.6056 6.37224C85.9576 6.37224 86.2336 6.41224 86.4336 6.49224C86.6416 6.56424 86.8536 6.67224 87.0696 6.81624C87.2456 6.92824 87.3816 6.98424 87.4776 6.98424C87.5496 6.98424 87.6056 6.94424 87.6456 6.86424C87.6856 6.77624 87.7176 6.64024 87.7416 6.45624H88.0176C87.9776 6.92024 87.9576 7.73624 87.9576 8.90424H87.6816C87.6336 8.25624 87.4456 7.71224 87.1176 7.27224C86.7976 6.82424 86.3296 6.60024 85.7136 6.60024C85.2816 6.60024 84.9296 6.73224 84.6576 6.99624C84.3856 7.25224 84.2496 7.58424 84.2496 7.99224C84.2496 8.29624 84.3176 8.56024 84.4536 8.78424C84.5976 9.00824 84.7776 9.20024 84.9936 9.36024C85.2096 9.52024 85.5176 9.72424 85.9176 9.97224L86.2656 10.1882C86.7696 10.5002 87.1656 10.7762 87.4536 11.0162C87.7496 11.2482 87.9856 11.5162 88.1616 11.8202C88.3376 12.1242 88.4256 12.4802 88.4256 12.8882C88.4256 13.6162 88.1856 14.1802 87.7056 14.5802C87.2256 14.9722 86.6176 15.1682 85.8816 15.1682C85.4976 15.1682 85.1816 15.1282 84.9336 15.0482C84.6936 14.9682 84.4616 14.8602 84.2376 14.7242C84.0616 14.6122 83.9256 14.5562 83.8296 14.5562C83.7576 14.5562 83.7016 14.6002 83.6616 14.6882C83.6216 14.7682 83.5896 14.9002 83.5656 15.0842H83.2896C83.3216 14.6442 83.3376 13.6842 83.3376 12.2042H83.6136C83.6696 13.0122 83.8696 13.6682 84.2136 14.1722C84.5576 14.6762 85.0856 14.9282 85.7976 14.9282C86.2296 14.9282 86.5976 14.7962 86.9016 14.5322C87.2056 14.2602 87.3576 13.8602 87.3576 13.3322C87.3576 12.8842 87.2056 12.5042 86.9016 12.1922C86.6056 11.8802 86.1336 11.5282 85.4856 11.1362C85.0136 10.8482 84.6296 10.5922 84.3336 10.3682C84.0456 10.1442 83.8096 9.87624 83.6256 9.56424C83.4416 9.24424 83.3496 8.87224 83.3496 8.44824C83.3496 7.77624 83.5656 7.26424 83.9976 6.91224C84.4296 6.55224 84.9656 6.37224 85.6056 6.37224ZM97.7981 6.50424C97.7421 7.07224 97.7141 7.58424 97.7141 8.04024C97.7141 8.44024 97.7261 8.76824 97.7501 9.02424H97.4741C97.4101 8.40824 97.3301 7.95224 97.2341 7.65624C97.1381 7.35224 96.9701 7.13224 96.7301 6.99624C96.4901 6.85224 96.1221 6.78024 95.6261 6.78024H94.9781V13.6082C94.9781 13.9442 95.0101 14.1882 95.0741 14.3402C95.1381 14.4922 95.2501 14.5962 95.4101 14.6522C95.5701 14.7082 95.8301 14.7442 96.1901 14.7602V15.0002C95.7741 14.9762 95.1861 14.9642 94.4261 14.9642C93.6261 14.9642 93.0341 14.9762 92.6501 15.0002V14.7602C93.0101 14.7442 93.2701 14.7082 93.4301 14.6522C93.5901 14.5962 93.7021 14.4922 93.7661 14.3402C93.8301 14.1882 93.8621 13.9442 93.8621 13.6082V6.78024H93.2141C92.7181 6.78024 92.3501 6.85224 92.1101 6.99624C91.8701 7.13224 91.7021 7.35224 91.6061 7.65624C91.5101 7.95224 91.4301 8.40824 91.3661 9.02424H91.0901C91.1141 8.76824 91.1261 8.44024 91.1261 8.04024C91.1261 7.58424 91.0981 7.07224 91.0421 6.50424C91.7061 6.52824 92.8341 6.54024 94.4261 6.54024C96.0101 6.54024 97.1341 6.52824 97.7981 6.50424Z" fill="#555248"/>
<path d="M18.0099 5.69434C18.8207 7.20647 19.1602 8.84382 19.0802 10.4398C18.9256 13.5217 17.2074 16.4468 14.2917 18.0103C12.5877 18.924 10.7244 19.2394 8.94038 19.0299C6.08509 18.6947 3.43639 17.0161 1.97576 14.292C-0.398422 9.86431 1.2663 4.35026 5.694 1.97607C6.74841 1.41069 7.86326 1.07467 8.9822 0.949999C10.622 0.767294 12.2725 1.03833 13.754 1.70967C15.5103 2.50552 17.0281 3.86323 18.0099 5.69434Z" stroke="url(#paint0_linear)"/>
<defs>
<linearGradient id="paint0_linear" x1="0.755987" y1="8.7235" x2="20.9646" y2="9.99221" gradientUnits="userSpaceOnUse">
<stop offset="0.288448" stop-color="#555248"/>
<stop offset="0.780176" stop-color="#1B1A17" stop-opacity="0"/>
</linearGradient>
</defs>
</svg>
